<?xml version="1.0" encoding="UTF-8"?>
<svg width="120px" height="120px" viewBox="0 0 120 120" version="1.1" xmlns="http://www.w3.org/2000/svg" xmlns:xlink="http://www.w3.org/1999/xlink">
    <!-- Generator: Sketch 47.1 (45422) - http://www.bohemiancoding.com/sketch -->
    <title>icons/03-blockchain</title>
    <desc>Created with Sketch.</desc>
    <defs>
        <linearGradient x1="0%" y1="0%" x2="107.07261%" y2="100%" id="linearGradient-1">
            <stop stop-color="#FFA000" offset="0%"></stop>
            <stop stop-color="#FFDE08" offset="100%"></stop>
        </linearGradient>
        <linearGradient x1="0%" y1="0%" x2="101.999998%" y2="100.999999%" id="linearGradient-2">
            <stop stop-color="#0090FF" offset="0%"></stop>
            <stop stop-color="#0915A3" offset="100%"></stop>
        </linearGradient>
    </defs>
    <g id="_sources" stroke="none" stroke-width="1" fill="none" fill-rule="evenodd">
        <g id="icons/03-blockchain">
            <g id="Group">
                <g>
                    <g id="bg-circle-120" fill="url(#linearGradient-1)">
                        <g>
                            <circle id="Oval-2" opacity="0.6" cx="60" cy="60" r="60"></circle>
                            <circle id="Oval-2-Copy-2" opacity="0.4" cx="60" cy="60" r="52"></circle>
                            <circle id="Oval-2-Copy" cx="60" cy="60" r="42"></circle>
                        </g>
                    </g>
                    <path d="M64.8249969,83.2153846 L41,83.2153846 L41,35.9538462 L64.0449151,35.9538462 C68.8337743,35.9538462 72.5662115,36.9964499 75.2423387,39.0816888 C77.9184658,41.1669276 79.2565094,44.054558 79.2565094,47.7446666 C79.2565094,50.4303669 78.3572574,52.7175448 76.5587266,54.606269 C74.7601958,56.4949932 72.4849801,57.6140182 69.7330113,57.9633776 L69.7330113,58.2253958 C72.9400301,58.3127357 75.6811233,59.4317607 77.9563731,61.5825044 C80.2316229,63.7332481 81.3692308,66.3588629 81.3692308,69.4594275 C81.3692308,73.6080702 79.8632547,76.9378519 76.8512573,79.4488725 C73.8392599,81.9598931 69.8305465,83.2153846 64.8249969,83.2153846 Z M54.7814443,45.4847593 L54.7814443,54.8846634 L60.112003,54.8846634 C61.8671957,54.8846634 63.2648282,54.458888 64.3049424,53.6073245 C65.3450566,52.755761 65.8651059,51.6094427 65.8651059,50.1683352 C65.8651059,48.7053928 65.3721425,47.5590745 64.3862009,46.7293459 C63.4002593,45.8996174 62.0405471,45.4847593 60.3070234,45.4847593 L54.7814443,45.4847593 Z M54.7814443,73.6844715 L54.7814443,62.8434671 L60.7620711,62.8434671 C62.8206305,62.8434671 64.4349502,63.3129118 65.6050787,64.2518151 C66.7752071,65.1907185 67.3602626,66.5007965 67.3602626,68.1820886 C67.3602626,69.9507205 66.7806243,71.3099265 65.6213304,72.2597473 C64.4620364,73.2095682 62.8097964,73.6844715 60.6645609,73.6844715 L54.7814443,73.6844715 Z M50.8461538,33 L54.7846154,33 L54.7846154,35.9538462 L50.8461538,35.9538462 L50.8461538,33 Z M50.8461538,83.2153846 L54.7846154,83.2153846 L54.7846154,86.1692308 L50.8461538,86.1692308 L50.8461538,83.2153846 Z M57.7384615,33 L61.6769231,33 L61.6769231,35.9538462 L57.7384615,35.9538462 L57.7384615,33 Z M57.7384615,83.2153846 L61.6769231,83.2153846 L61.6769231,86.1692308 L57.7384615,86.1692308 L57.7384615,83.2153846 Z" id="Combined-Shape" fill="url(#linearGradient-2)"></path>
                </g>
            </g>
        </g>
    </g>
</svg>