<?xml version="1.0" encoding="UTF-8"?>
<svg width="120px" height="120px" viewBox="0 0 120 120" version="1.1" xmlns="http://www.w3.org/2000/svg" xmlns:xlink="http://www.w3.org/1999/xlink">
    <!-- Generator: Sketch 47.1 (45422) - http://www.bohemiancoding.com/sketch -->
    <title>icons/03-corporate</title>
    <desc>Created with Sketch.</desc>
    <defs>
        <linearGradient x1="0%" y1="0%" x2="107.07261%" y2="100%" id="linearGradient-1">
            <stop stop-color="#FFA000" offset="0%"></stop>
            <stop stop-color="#FFDE08" offset="100%"></stop>
        </linearGradient>
        <linearGradient x1="0%" y1="0%" x2="101.999998%" y2="100.999999%" id="linearGradient-2">
            <stop stop-color="#0090FF" offset="0%"></stop>
            <stop stop-color="#0915A3" offset="100%"></stop>
        </linearGradient>
    </defs>
    <g id="_sources" stroke="none" stroke-width="1" fill="none" fill-rule="evenodd">
        <g id="icons/03-corporate">
            <g id="Group">
                <g>
                    <g id="bg-circle-120" fill="url(#linearGradient-1)">
                        <g>
                            <circle id="Oval-2" opacity="0.6" cx="60" cy="60" r="60"></circle>
                            <circle id="Oval-2-Copy-2" opacity="0.4" cx="60" cy="60" r="52"></circle>
                            <circle id="Oval-2-Copy" cx="60" cy="60" r="42"></circle>
                        </g>
                    </g>
                    <path d="M76.3181812,37 C76.7736743,37 77.1678503,37.1654598 77.5007092,37.4963795 C77.8335697,37.8272975 78,38.2191752 78,38.6720123 L78,82.1443158 C78,82.5971514 77.8335697,82.989029 77.5007092,83.3199486 C77.1678503,83.6508683 76.7736743,83.8163265 76.3181812,83.8163265 L42.6818188,83.8163265 C42.2263257,83.8163265 41.8321497,83.6508683 41.4992892,83.3199486 C41.1664303,82.989029 41,82.5971514 41,82.1443158 L41,38.6720123 C41,38.2191752 41.1664303,37.8272975 41.4992892,37.4963795 C41.8321497,37.1654598 42.2263257,37 42.6818188,37 L76.3181812,37 Z M54.4545459,44.5240531 L54.4545459,46.1960639 C54.4545459,46.439899 54.5333808,46.6401932 54.6910506,46.7969437 C54.8487219,46.9536941 55.0501894,47.0320709 55.2954545,47.0320709 L56.9772718,47.0320709 C57.2225369,47.0320709 57.4240059,46.9536941 57.5816757,46.7969437 C57.7393455,46.6401932 57.818182,46.439899 57.818182,46.1960639 L57.818182,44.5240531 C57.818182,44.2802181 57.7393455,44.0799254 57.5816757,43.9231734 C57.4240059,43.766423 57.2225369,43.6880478 56.9772718,43.6880478 L55.2954545,43.6880478 C55.0501894,43.6880478 54.8487219,43.766423 54.6910506,43.9231734 C54.5333808,44.0799254 54.4545459,44.2802181 54.4545459,44.5240531 Z M54.4545459,51.2120993 L54.4545459,52.8841117 C54.4545459,53.1279467 54.5333808,53.3282394 54.6910506,53.4849899 C54.8487219,53.6417419 55.0501894,53.7201171 55.2954545,53.7201171 L56.9772718,53.7201171 C57.2225369,53.7201171 57.4240059,53.6417419 57.5816757,53.4849899 C57.7393455,53.3282394 57.818182,53.1279467 57.818182,52.8841117 L57.818182,51.2120993 C57.818182,50.9682643 57.7393455,50.7679716 57.5816757,50.6112196 C57.4240059,50.4544692 57.2225369,50.376094 56.9772718,50.376094 L55.2954545,50.376094 C55.0501894,50.376094 54.8487219,50.4544692 54.6910506,50.6112196 C54.5333808,50.7679716 54.4545459,50.9682643 54.4545459,51.2120993 Z M54.4545459,57.9001455 L54.4545459,59.5721579 C54.4545459,59.8159929 54.5333808,60.0162856 54.6910506,60.1730376 C54.8487219,60.3297881 55.0501894,60.4081633 55.2954545,60.4081633 L56.9772718,60.4081633 C57.2225369,60.4081633 57.4240059,60.3297881 57.5816757,60.1730376 C57.7393455,60.0162856 57.818182,59.8159929 57.818182,59.5721579 L57.818182,57.9001455 C57.818182,57.6563105 57.7393455,57.4560178 57.5816757,57.2992674 C57.4240059,57.1425154 57.2225369,57.0641402 56.9772718,57.0641402 L55.2954545,57.0641402 C55.0501894,57.0641402 54.8487219,57.1425154 54.6910506,57.2992674 C54.5333808,57.4560178 54.4545459,57.6563105 54.4545459,57.9001455 Z M54.4545459,64.5881933 L54.4545459,66.2602041 C54.4545459,66.5040391 54.5333808,66.7043318 54.6910506,66.8610838 C54.8487219,67.0178343 55.0501894,67.096211 55.2954545,67.096211 L56.9772718,67.096211 C57.2225369,67.096211 57.4240059,67.0178343 57.5816757,66.8610838 C57.7393455,66.7043318 57.818182,66.5040391 57.818182,66.2602041 L57.818182,64.5881933 C57.818182,64.3443583 57.7393455,64.1440655 57.5816757,63.9873136 C57.4240059,63.8305631 57.2225369,63.7521864 56.9772718,63.7521864 L55.2954545,63.7521864 C55.0501894,63.7521864 54.8487219,63.8305631 54.6910506,63.9873136 C54.5333808,64.1440655 54.4545459,64.3443583 54.4545459,64.5881933 Z M51.0909082,72.9482518 L51.0909082,71.2762395 C51.0909082,71.0324045 51.0120733,70.8321117 50.8544036,70.6753598 C50.6967322,70.5186093 50.4952648,70.4402341 50.2499996,70.4402341 L48.5681824,70.4402341 C48.3229172,70.4402341 48.1214482,70.5186093 47.9637784,70.6753598 C47.8061086,70.8321117 47.7272722,71.0324045 47.7272722,71.2762395 L47.7272722,72.9482518 C47.7272722,73.1920869 47.8061086,73.3923796 47.9637784,73.54913 C48.1214482,73.705882 48.3229172,73.7842572 48.5681824,73.7842572 L50.2499996,73.7842572 C50.4952648,73.7842572 50.6967322,73.705882 50.8544036,73.54913 C51.0120733,73.3923796 51.0909082,73.1920869 51.0909082,72.9482518 Z M51.0909082,66.2602041 L51.0909082,64.5881933 C51.0909082,64.3443583 51.0120733,64.1440655 50.8544036,63.9873136 C50.6967322,63.8305631 50.4952648,63.7521864 50.2499996,63.7521864 L48.5681824,63.7521864 C48.3229172,63.7521864 48.1214482,63.8305631 47.9637784,63.9873136 C47.8061086,64.1440655 47.7272722,64.3443583 47.7272722,64.5881933 L47.7272722,66.2602041 C47.7272722,66.5040391 47.8061086,66.7043318 47.9637784,66.8610838 C48.1214482,67.0178343 48.3229172,67.096211 48.5681824,67.096211 L50.2499996,67.096211 C50.4952648,67.096211 50.6967322,67.0178343 50.8544036,66.8610838 C51.0120733,66.7043318 51.0909082,66.5040391 51.0909082,66.2602041 Z M51.0909082,59.5721579 L51.0909082,57.9001455 C51.0909082,57.6563105 51.0120733,57.4560178 50.8544036,57.2992674 C50.6967322,57.1425154 50.4952648,57.0641402 50.2499996,57.0641402 L48.5681824,57.0641402 C48.3229172,57.0641402 48.1214482,57.1425154 47.9637784,57.2992674 C47.8061086,57.4560178 47.7272722,57.6563105 47.7272722,57.9001455 L47.7272722,59.5721579 C47.7272722,59.8159929 47.8061086,60.0162856 47.9637784,60.1730376 C48.1214482,60.3297881 48.3229172,60.4081633 48.5681824,60.4081633 L50.2499996,60.4081633 C50.4952648,60.4081633 50.6967322,60.3297881 50.8544036,60.1730376 C51.0120733,60.0162856 51.0909082,59.8159929 51.0909082,59.5721579 Z M51.0909082,52.8841117 L51.0909082,51.2120993 C51.0909082,50.9682643 51.0120733,50.7679716 50.8544036,50.6112196 C50.6967322,50.4544692 50.4952648,50.376094 50.2499996,50.376094 L48.5681824,50.376094 C48.3229172,50.376094 48.1214482,50.4544692 47.9637784,50.6112196 C47.8061086,50.7679716 47.7272722,50.9682643 47.7272722,51.2120993 L47.7272722,52.8841117 C47.7272722,53.1279467 47.8061086,53.3282394 47.9637784,53.4849899 C48.1214482,53.6417419 48.3229172,53.7201171 48.5681824,53.7201171 L50.2499996,53.7201171 C50.4952648,53.7201171 50.6967322,53.6417419 50.8544036,53.4849899 C51.0120733,53.3282394 51.0909082,53.1279467 51.0909082,52.8841117 Z M51.0909082,46.1960639 L51.0909082,44.5240531 C51.0909082,44.2802181 51.0120733,44.0799254 50.8544036,43.9231734 C50.6967322,43.766423 50.4952648,43.6880478 50.2499996,43.6880478 L48.5681824,43.6880478 C48.3229172,43.6880478 48.1214482,43.766423 47.9637784,43.9231734 C47.8061086,44.0799254 47.7272722,44.2802181 47.7272722,44.5240531 L47.7272722,46.1960639 C47.7272722,46.439899 47.8061086,46.6401932 47.9637784,46.7969437 C48.1214482,46.9536941 48.3229172,47.0320709 48.5681824,47.0320709 L50.2499996,47.0320709 C50.4952648,47.0320709 50.6967322,46.9536941 50.8544036,46.7969437 C51.0120733,46.6401932 51.0909082,46.439899 51.0909082,46.1960639 Z M64.5454541,79.636298 L64.5454541,74.6202626 C64.5454541,74.3764276 64.4666192,74.1761349 64.3089479,74.0193829 C64.1512781,73.8626324 63.9498106,73.7842572 63.7045455,73.7842572 L55.2954545,73.7842572 C55.0501894,73.7842572 54.8487219,73.8626324 54.6910506,74.0193829 C54.5333808,74.1761349 54.4545459,74.3764276 54.4545459,74.6202626 L54.4545459,79.636298 C54.4545459,79.8801331 54.5333808,80.0804258 54.6910506,80.2371778 C54.8487219,80.3939282 55.0501894,80.4723034 55.2954545,80.4723034 L63.7045455,80.4723034 C63.9498106,80.4723034 64.1512781,80.3939282 64.3089479,80.2371778 C64.4666192,80.0804258 64.5454541,79.8801331 64.5454541,79.636298 Z M64.5454541,66.2602041 L64.5454541,64.5881933 C64.5454541,64.3443583 64.4666192,64.1440655 64.3089479,63.9873136 C64.1512781,63.8305631 63.9498106,63.7521864 63.7045455,63.7521864 L62.0227267,63.7521864 C61.7774615,63.7521864 61.5759941,63.8305631 61.4183227,63.9873136 C61.2606529,64.1440655 61.181818,64.3443583 61.181818,64.5881933 L61.181818,66.2602041 C61.181818,66.5040391 61.2606529,66.7043318 61.4183227,66.8610838 C61.5759941,67.0178343 61.7774615,67.096211 62.0227267,67.096211 L63.7045455,67.096211 C63.9498106,67.096211 64.1512781,67.0178343 64.3089479,66.8610838 C64.4666192,66.7043318 64.5454541,66.5040391 64.5454541,66.2602041 Z M64.5454541,59.5721579 L64.5454541,57.9001455 C64.5454541,57.6563105 64.4666192,57.4560178 64.3089479,57.2992674 C64.1512781,57.1425154 63.9498106,57.0641402 63.7045455,57.0641402 L62.0227267,57.0641402 C61.7774615,57.0641402 61.5759941,57.1425154 61.4183227,57.2992674 C61.2606529,57.4560178 61.181818,57.6563105 61.181818,57.9001455 L61.181818,59.5721579 C61.181818,59.8159929 61.2606529,60.0162856 61.4183227,60.1730376 C61.5759941,60.3297881 61.7774615,60.4081633 62.0227267,60.4081633 L63.7045455,60.4081633 C63.9498106,60.4081633 64.1512781,60.3297881 64.3089479,60.1730376 C64.4666192,60.0162856 64.5454541,59.8159929 64.5454541,59.5721579 Z M64.5454541,52.8841117 L64.5454541,51.2120993 C64.5454541,50.9682643 64.4666192,50.7679716 64.3089479,50.6112196 C64.1512781,50.4544692 63.9498106,50.376094 63.7045455,50.376094 L62.0227267,50.376094 C61.7774615,50.376094 61.5759941,50.4544692 61.4183227,50.6112196 C61.2606529,50.7679716 61.181818,50.9682643 61.181818,51.2120993 L61.181818,52.8841117 C61.181818,53.1279467 61.2606529,53.3282394 61.4183227,53.4849899 C61.5759941,53.6417419 61.7774615,53.7201171 62.0227267,53.7201171 L63.7045455,53.7201171 C63.9498106,53.7201171 64.1512781,53.6417419 64.3089479,53.4849899 C64.4666192,53.3282394 64.5454541,53.1279467 64.5454541,52.8841117 Z M64.5454541,46.1960639 L64.5454541,44.5240531 C64.5454541,44.2802181 64.4666192,44.0799254 64.3089479,43.9231734 C64.1512781,43.766423 63.9498106,43.6880478 63.7045455,43.6880478 L62.0227267,43.6880478 C61.7774615,43.6880478 61.5759941,43.766423 61.4183227,43.9231734 C61.2606529,44.0799254 61.181818,44.2802181 61.181818,44.5240531 L61.181818,46.1960639 C61.181818,46.439899 61.2606529,46.6401932 61.4183227,46.7969437 C61.5759941,46.9536941 61.7774615,47.0320709 62.0227267,47.0320709 L63.7045455,47.0320709 C63.9498106,47.0320709 64.1512781,46.9536941 64.3089479,46.7969437 C64.4666192,46.6401932 64.5454541,46.439899 64.5454541,46.1960639 Z M71.2727263,72.9482518 L71.2727263,71.2762395 C71.2727263,71.0324045 71.1938914,70.8321117 71.0362216,70.6753598 C70.8785503,70.5186093 70.6770828,70.4402341 70.4318176,70.4402341 L68.7499988,70.4402341 C68.5047337,70.4402341 68.3032662,70.5186093 68.1455964,70.6753598 C67.9879251,70.8321117 67.9090902,71.0324045 67.9090902,71.2762395 L67.9090902,72.9482518 C67.9090902,73.1920869 67.9879251,73.3923796 68.1455964,73.54913 C68.3032662,73.705882 68.5047337,73.7842572 68.7499988,73.7842572 L70.4318176,73.7842572 C70.6770828,73.7842572 70.8785503,73.705882 71.0362216,73.54913 C71.1938914,73.3923796 71.2727263,73.1920869 71.2727263,72.9482518 Z M71.2727263,66.2602041 L71.2727263,64.5881933 C71.2727263,64.3443583 71.1938914,64.1440655 71.0362216,63.9873136 C70.8785503,63.8305631 70.6770828,63.7521864 70.4318176,63.7521864 L68.7499988,63.7521864 C68.5047337,63.7521864 68.3032662,63.8305631 68.1455964,63.9873136 C67.9879251,64.1440655 67.9090902,64.3443583 67.9090902,64.5881933 L67.9090902,66.2602041 C67.9090902,66.5040391 67.9879251,66.7043318 68.1455964,66.8610838 C68.3032662,67.0178343 68.5047337,67.096211 68.7499988,67.096211 L70.4318176,67.096211 C70.6770828,67.096211 70.8785503,67.0178343 71.0362216,66.8610838 C71.1938914,66.7043318 71.2727263,66.5040391 71.2727263,66.2602041 Z M71.2727263,59.5721579 L71.2727263,57.9001455 C71.2727263,57.6563105 71.1938914,57.4560178 71.0362216,57.2992674 C70.8785503,57.1425154 70.6770828,57.0641402 70.4318176,57.0641402 L68.7499988,57.0641402 C68.5047337,57.0641402 68.3032662,57.1425154 68.1455964,57.2992674 C67.9879251,57.4560178 67.9090902,57.6563105 67.9090902,57.9001455 L67.9090902,59.5721579 C67.9090902,59.8159929 67.9879251,60.0162856 68.1455964,60.1730376 C68.3032662,60.3297881 68.5047337,60.4081633 68.7499988,60.4081633 L70.4318176,60.4081633 C70.6770828,60.4081633 70.8785503,60.3297881 71.0362216,60.1730376 C71.1938914,60.0162856 71.2727263,59.8159929 71.2727263,59.5721579 Z M71.2727263,52.8841117 L71.2727263,51.2120993 C71.2727263,50.9682643 71.1938914,50.7679716 71.0362216,50.6112196 C70.8785503,50.4544692 70.6770828,50.376094 70.4318176,50.376094 L68.7499988,50.376094 C68.5047337,50.376094 68.3032662,50.4544692 68.1455964,50.6112196 C67.9879251,50.7679716 67.9090902,50.9682643 67.9090902,51.2120993 L67.9090902,52.8841117 C67.9090902,53.1279467 67.9879251,53.3282394 68.1455964,53.4849899 C68.3032662,53.6417419 68.5047337,53.7201171 68.7499988,53.7201171 L70.4318176,53.7201171 C70.6770828,53.7201171 70.8785503,53.6417419 71.0362216,53.4849899 C71.1938914,53.3282394 71.2727263,53.1279467 71.2727263,52.8841117 Z M71.2727263,46.1960639 L71.2727263,44.5240531 C71.2727263,44.2802181 71.1938914,44.0799254 71.0362216,43.9231734 C70.8785503,43.766423 70.6770828,43.6880478 70.4318176,43.6880478 L68.7499988,43.6880478 C68.5047337,43.6880478 68.3032662,43.766423 68.1455964,43.9231734 C67.9879251,44.0799254 67.9090902,44.2802181 67.9090902,44.5240531 L67.9090902,46.1960639 C67.9090902,46.439899 67.9879251,46.6401932 68.1455964,46.7969437 C68.3032662,46.9536941 68.5047337,47.0320709 68.7499988,47.0320709 L70.4318176,47.0320709 C70.6770828,47.0320709 70.8785503,46.9536941 71.0362216,46.7969437 C71.1938914,46.6401932 71.2727263,46.439899 71.2727263,46.1960639 Z" id="Shape" fill="url(#linearGradient-2)" fill-rule="nonzero"></path>
                </g>
            </g>
        </g>
    </g>
</svg>