<?xml version="1.0" encoding="UTF-8"?>
<svg width="120px" height="120px" viewBox="0 0 120 120" version="1.1" xmlns="http://www.w3.org/2000/svg" xmlns:xlink="http://www.w3.org/1999/xlink">
    <!-- Generator: Sketch 47.1 (45422) - http://www.bohemiancoding.com/sketch -->
    <title>icons/03-fintech</title>
    <desc>Created with Sketch.</desc>
    <defs>
        <linearGradient x1="0%" y1="0%" x2="107.07261%" y2="100%" id="linearGradient-1">
            <stop stop-color="#FFA000" offset="0%"></stop>
            <stop stop-color="#FFDE08" offset="100%"></stop>
        </linearGradient>
        <linearGradient x1="0%" y1="0%" x2="101.999998%" y2="100.999999%" id="linearGradient-2">
            <stop stop-color="#0090FF" offset="0%"></stop>
            <stop stop-color="#0915A3" offset="100%"></stop>
        </linearGradient>
    </defs>
    <g id="_sources" stroke="none" stroke-width="1" fill="none" fill-rule="evenodd">
        <g id="icons/03-fintech">
            <g id="Group">
                <g>
                    <g id="bg-circle-120" fill="url(#linearGradient-1)">
                        <g>
                            <circle id="Oval-2" opacity="0.6" cx="60" cy="60" r="60"></circle>
                            <circle id="Oval-2-Copy-2" opacity="0.4" cx="60" cy="60" r="52"></circle>
                            <circle id="Oval-2-Copy" cx="60" cy="60" r="42"></circle>
                        </g>
                    </g>
                    <g id="Fx" transform="translate(35.000000, 36.000000)" fill="url(#linearGradient-2)">
                        <path d="M13.8327203,19.5833333 L13.8327203,10.976438 L33.0810811,10.976438 L33.0810811,0 L0,0 L0,47 L13.8327203,47 L13.8327203,30.3562024 L28.4446588,30.3562024 L30.3236575,33.5256813 L22.107402,47 L31.2119013,47 L35.6037736,38.6001048 L36.0725689,38.6001048 L40.4891147,47 L50.0377358,47 L41.6981132,33.1561845 L50.0130624,19.5833333 L40.563135,19.5833333 L36.4920174,28.1310273 L36.0232221,28.1310273 L32.0014514,19.5833333 L24.7597968,19.5833333 L13.8327203,19.5833333 Z" id="Combined-Shape"></path>
                    </g>
                </g>
            </g>
        </g>
    </g>
</svg>