<?xml version="1.0" encoding="UTF-8"?>
<svg width="120px" height="120px" viewBox="0 0 120 120" version="1.1" xmlns="http://www.w3.org/2000/svg" xmlns:xlink="http://www.w3.org/1999/xlink">
    <!-- Generator: Sketch 47.1 (45422) - http://www.bohemiancoding.com/sketch -->
    <title>icons/03-microloans</title>
    <desc>Created with Sketch.</desc>
    <defs>
        <linearGradient x1="0%" y1="0%" x2="107.07261%" y2="100%" id="linearGradient-1">
            <stop stop-color="#FFA000" offset="0%"></stop>
            <stop stop-color="#FFDE08" offset="100%"></stop>
        </linearGradient>
        <linearGradient x1="0%" y1="0%" x2="101.999998%" y2="100.999999%" id="linearGradient-2">
            <stop stop-color="#0090FF" offset="0%"></stop>
            <stop stop-color="#0915A3" offset="100%"></stop>
        </linearGradient>
    </defs>
    <g id="_sources" stroke="none" stroke-width="1" fill="none" fill-rule="evenodd">
        <g id="icons/03-microloans">
            <g id="Group">
                <g>
                    <g id="bg-circle-120" fill="url(#linearGradient-1)">
                        <g>
                            <circle id="Oval-2" opacity="0.6" cx="60" cy="60" r="60"></circle>
                            <circle id="Oval-2-Copy-2" opacity="0.4" cx="60" cy="60" r="52"></circle>
                            <circle id="Oval-2-Copy" cx="60" cy="60" r="42"></circle>
                        </g>
                    </g>
                    <path d="M59.6307692,36 C46.5806769,36 36,46.5806769 36,59.6307692 C36,72.6808615 46.5806769,83.2615385 59.6307692,83.2615385 C72.6808615,83.2615385 83.2615385,72.6808615 83.2615385,59.6307692 C83.2615385,46.5806769 72.6808615,36 59.6307692,36 Z M59.6307692,80.3076923 C48.2289231,80.3076923 38.9538462,71.0326154 38.9538462,59.6307692 C38.9538462,48.2289231 48.2289231,38.9538462 59.6307692,38.9538462 C71.0326154,38.9538462 80.3076923,48.2289231 80.3076923,59.6307692 C80.3076923,71.0326154 71.0326154,80.3076923 59.6307692,80.3076923 Z M56.6769231,52.2461538 C56.6769231,49.7977993 54.6916143,47.8153846 52.2461538,47.8153846 C49.8006934,47.8153846 47.8153846,49.7977993 47.8153846,52.2461538 C47.8153846,54.6945084 49.8006934,56.6769231 52.2461538,56.6769231 C54.6916143,56.6769231 56.6769231,54.6916143 56.6769231,52.2461538 Z M50.7692308,52.2461538 C50.7692308,51.4312038 51.4312038,50.7692308 52.2461538,50.7692308 C53.0611039,50.7692308 53.7230769,51.4312038 53.7230769,52.2461538 C53.7230769,53.0611039 53.0611039,53.7230769 52.2461538,53.7230769 C51.4312038,53.7230769 50.7692308,53.0611039 50.7692308,52.2461538 Z M67.0153846,62.5846154 C64.5670301,62.5846154 62.5846154,64.5699241 62.5846154,67.0153846 C62.5846154,69.4608451 64.5670301,71.4461538 67.0153846,71.4461538 C69.4637391,71.4461538 71.4461538,69.4608451 71.4461538,67.0153846 C71.4461538,64.5699241 69.4608451,62.5846154 67.0153846,62.5846154 Z M67.0153846,68.4923077 C66.2004346,68.4923077 65.5384615,67.8303346 65.5384615,67.0153846 C65.5384615,66.2004346 66.2004346,65.5384615 67.0153846,65.5384615 C67.8303346,65.5384615 68.4923077,66.2004346 68.4923077,67.0153846 C68.4923077,67.8303346 67.8303346,68.4923077 67.0153846,68.4923077 Z M70.0295076,49.2319846 C69.4534665,48.6560051 68.5170303,48.6560051 67.9409892,49.2319846 L50.2166462,66.9544286 C49.6406051,67.530408 49.6406051,68.4667438 50.2166462,69.0427232 C50.5031898,69.3321898 50.8813091,69.4769231 51.2594284,69.4769231 C51.6375477,69.4769231 52.0156671,69.3321898 52.3051647,69.0456769 L70.0295076,51.323233 C70.6055487,50.7442998 70.6055487,49.8109177 70.0295076,49.2319846 Z" id="Shape" fill="url(#linearGradient-2)" fill-rule="nonzero"></path>
                </g>
            </g>
        </g>
    </g>
</svg>