<?xml version="1.0" encoding="UTF-8"?>
<svg width="120px" height="120px" viewBox="0 0 120 120" version="1.1" xmlns="http://www.w3.org/2000/svg" xmlns:xlink="http://www.w3.org/1999/xlink">
    <!-- Generator: Sketch 47.1 (45422) - http://www.bohemiancoding.com/sketch -->
    <title>icons/03-payroll</title>
    <desc>Created with Sketch.</desc>
    <defs>
        <linearGradient x1="0%" y1="0%" x2="107.07261%" y2="100%" id="linearGradient-1">
            <stop stop-color="#FFA000" offset="0%"></stop>
            <stop stop-color="#FFDE08" offset="100%"></stop>
        </linearGradient>
        <linearGradient x1="0%" y1="0%" x2="101.999998%" y2="100.999999%" id="linearGradient-2">
            <stop stop-color="#0090FF" offset="0%"></stop>
            <stop stop-color="#0915A3" offset="100%"></stop>
        </linearGradient>
    </defs>
    <g id="_sources" stroke="none" stroke-width="1" fill="none" fill-rule="evenodd">
        <g id="icons/03-payroll">
            <g id="Group">
                <g>
                    <g id="bg-circle-120" fill="url(#linearGradient-1)">
                        <g>
                            <circle id="Oval-2" opacity="0.6" cx="60" cy="60" r="60"></circle>
                            <circle id="Oval-2-Copy-2" opacity="0.4" cx="60" cy="60" r="52"></circle>
                            <circle id="Oval-2-Copy" cx="60" cy="60" r="42"></circle>
                        </g>
                    </g>
                    <path d="M59.6339744,81.6307692 C49.3542318,81.6307692 41,78.8158809 41,75.3754618 L41,69.1201544 C41,68.5884533 41.2795096,68.0567521 41.6521891,67.5563275 C43.7329829,70.2461097 50.9691763,72.2478081 59.6339744,72.2478081 C68.2987724,72.2478081 75.5349658,70.2461097 77.6157596,67.5563275 C78.0194957,68.0567521 78.2679487,68.5884533 78.2679487,69.1201544 L78.2679487,75.3754618 C78.2679487,78.8158809 69.9137169,81.6307692 59.6339744,81.6307692 L59.6339744,81.6307692 Z M59.6339744,69.6674938 C49.3542318,69.6674938 41,66.8526055 41,63.4121864 L41,57.156879 C41,56.8128371 41.1242265,56.5000717 41.2795096,56.1873063 L41.2795096,56.1873063 C41.3726795,55.9996471 41.496906,55.7807113 41.6521891,55.5930521 C43.7329829,58.2828343 50.9691763,60.2845327 59.6339744,60.2845327 C68.2987724,60.2845327 75.5349658,58.2828343 77.6157596,55.5930521 C77.7710427,55.7807113 77.8952692,55.9996471 77.9884391,56.1873063 L77.9884391,56.1873063 C78.1437222,56.5000717 78.2679487,56.8441136 78.2679487,57.156879 L78.2679487,63.4121864 C78.2679487,66.8526055 69.9137169,69.6674938 59.6339744,69.6674938 L59.6339744,69.6674938 Z M59.6339744,57.0004963 C49.3542318,57.0004963 41,54.1504218 41,50.6669975 L41,47.5002481 L41,44.3334988 C41,40.8500744 49.3542318,38 59.6339744,38 C69.9137169,38 78.2679487,40.8500744 78.2679487,44.3334988 L78.2679487,47.5002481 L78.2679487,50.6669975 C78.2679487,54.1504218 69.9137169,57.0004963 59.6339744,57.0004963 L59.6339744,57.0004963 Z M59.6339744,40.8148883 C52.8352106,40.8148883 47.3285196,42.2399256 47.3285196,43.9816377 C47.3285196,45.7233499 52.8352106,47.1483871 59.6339744,47.1483871 C66.4327381,47.1483871 71.9394291,45.7233499 71.9394291,43.9816377 C71.9394291,42.2399256 66.4327381,40.8148883 59.6339744,40.8148883 L59.6339744,40.8148883 Z" id="Shape" fill="url(#linearGradient-2)" fill-rule="nonzero"></path>
                </g>
            </g>
        </g>
    </g>
</svg>