<svg xmlns="http://www.w3.org/2000/svg" xmlns:xlink="http://www.w3.org/1999/xlink" viewBox="0 0 2719 1080"><defs><linearGradient id="b" x1="1473.48" y1="-117.34" x2="1306.12" y2="856.41" gradientUnits="userSpaceOnUse"><stop offset="0" stop-color="#f8f5ff"/><stop offset="1" stop-color="#eff8ff"/></linearGradient><linearGradient id="c" x1="2371.91" y1="1037.39" x2="2380.91" y2="44.29" gradientUnits="userSpaceOnUse"><stop offset="0" stop-color="#d4dafe"/><stop offset="1" stop-color="#ffc9e5"/></linearGradient><linearGradient id="a" x1="2040.85" y1="1068.99" x2="2044.23" y2="696.51" gradientUnits="userSpaceOnUse"><stop offset="0" stop-color="#e3ccf6"/><stop offset="1" stop-color="#ffe0f6"/></linearGradient><linearGradient id="d" x1="740.59" y1="1040.62" x2="749.65" y2="40.89" xlink:href="#a"/></defs><title>06-apply-bg</title><g style="isolation:isolate"><path fill="url(#b)" d="M0 0h2721v1080H0z"/><circle cx="2257.21" cy="610.55" r="12.83" fill="#eaeaff"/><circle cx="912.88" cy="592.48" r="44.82" fill="#eaeaff"/><circle cx="1848.34" cy="111.43" r="31.7" fill="#eaeaff"/><circle cx="258.49" cy="923.59" r="19.05" fill="#eaeaff"/><circle cx="730.97" cy="942.65" r="19.05" fill="#ffe2bb"/><circle cx="358.08" cy="720.3" r="19.05" fill="#ffe2bb"/><circle cx="1519.09" cy="265.86" r="19.05" fill="#ffe2bb"/><circle cx="2095.25" cy="478.81" r="36.78" fill="#ffe2bb"/><circle cx="1274.93" cy="515.59" r="17.21" fill="#eaeaff"/><circle cx="2484.04" cy="46.61" r="17.21" fill="#eaeaff"/><circle cx="1799.43" cy="402.11" r="17.21" fill="#eaeaff"/><circle cx="1296.04" cy="879.4" r="21.11" fill="#eaeaff"/><path d="M2022 1080s244-19.89 370-125.89 76-300-22-394-170-278 28-372S2522 0 2522 0h199v1080z" fill="url(#c)" style="mix-blend-mode:multiply"/><path d="M1360.5 1080s275.31-358.13 527.5-389.89c270-34 377.94 8.85 540 126 166 120 293 42 293 42V1080z" fill="url(#a)" style="mix-blend-mode:multiply"/><path d="M0 1080s28-454.11 336-540 544-109.89 628-293.89 260-220 348-204S1500 0 1500 0H0z" fill="url(#d)"/><circle cx="2429.11" cy="354.17" r="20" fill="#fff" opacity=".2"/><circle cx="784.12" cy="66.61" r="20" fill="#fff" opacity=".2"/><circle cx="2589.6" cy="616.65" r="6.11" fill="#fff" opacity=".2"/><circle cx="238.07" cy="235.07" r="6.11" fill="#fff" opacity=".2"/><circle cx="2295.92" cy="962" r="6.11" fill="#fff" opacity=".2"/><circle cx="1826.45" cy="917.49" r="6.11" fill="#fff" opacity=".2"/><circle cx="2583.5" cy="185.63" r="6.11" fill="#fff" opacity=".2"/><circle cx="1636.04" cy="988.11" r="20" fill="#fff" opacity=".2"/><circle cx="151.06" cy="46.61" r="20" fill="#fff" opacity=".2"/><circle cx="2002.04" cy="794.11" r="20" fill="#fff" opacity=".2"/><circle cx="2695.11" cy="25.11" r="41.5" fill="#fff" opacity=".2"/><circle cy="678.8" r="41.5" fill="#fff" opacity=".2"/><circle cx="2643.84" cy="1019.84" r="11.73" fill="#fff" opacity=".2"/><circle cx="604.37" cy="235.07" r="11.73" fill="#fff" opacity=".2"/></g></svg>