<?xml version="1.0" encoding="UTF-8"?>
<svg width="64px" height="64px" viewBox="0 0 64 64" version="1.1" xmlns="http://www.w3.org/2000/svg" xmlns:xlink="http://www.w3.org/1999/xlink">
    <!-- Generator: Sketch 47.1 (45422) - http://www.bohemiancoding.com/sketch -->
    <title>inStore</title>
    <desc>Created with Sketch.</desc>
    <defs>
        <linearGradient x1="0%" y1="0%" x2="107.07261%" y2="100%" id="linearGradient-1">
            <stop stop-color="#FFA000" offset="0%"></stop>
            <stop stop-color="#FFDE08" offset="100%"></stop>
        </linearGradient>
        <linearGradient x1="0%" y1="0%" x2="101.999998%" y2="100.999999%" id="linearGradient-2">
            <stop stop-color="#0090FF" offset="0%"></stop>
            <stop stop-color="#BE2ED5" offset="100%"></stop>
        </linearGradient>
    </defs>
    <g id="_sources" stroke="none" stroke-width="1" fill="none" fill-rule="evenodd">
        <g id="inStore">
            <g id="icons/in-store">
                <g id="InStore">
                    <circle id="Oval-2-Copy-3" fill="url(#linearGradient-1)" cx="32" cy="32" r="32"></circle>
                    <path d="M46.414062,39.857143 L47,45.097098 C47.033482,45.409598 46.944196,45.688616 46.732143,45.934152 C46.520089,46.168527 46.252232,46.285714 45.928571,46.285714 L18.071429,46.285714 C17.747768,46.285714 17.479911,46.168527 17.267857,45.934152 C17.055804,45.688616 16.966518,45.409598 17,45.097098 L17.585938,39.857143 L46.414062,39.857143 Z M44.857143,25.811384 L46.296875,38.785714 L17.703125,38.785714 L19.142857,25.811384 C19.176339,25.543527 19.293527,25.317522 19.49442,25.133371 C19.695312,24.949219 19.935268,24.857143 20.214286,24.857143 L24.5,24.857143 L24.5,27 C24.5,27.591518 24.709263,28.09654 25.12779,28.515067 C25.546317,28.933594 26.051339,29.142857 26.642857,29.142857 C27.234375,29.142857 27.739397,28.933594 28.157924,28.515067 C28.576451,28.09654 28.785714,27.591518 28.785714,27 L28.785714,24.857143 L35.214286,24.857143 L35.214286,27 C35.214286,27.591518 35.423549,28.09654 35.842076,28.515067 C36.260603,28.933594 36.765625,29.142857 37.357143,29.142857 C37.948661,29.142857 38.453683,28.933594 38.87221,28.515067 C39.290737,28.09654 39.5,27.591518 39.5,27 L39.5,24.857143 L43.785714,24.857143 C44.064732,24.857143 44.304688,24.949219 44.50558,25.133371 C44.706473,25.317522 44.823661,25.543527 44.857143,25.811384 Z M38.428571,22.714286 L38.428571,27 C38.428571,27.290179 38.322545,27.541295 38.110491,27.753348 C37.898438,27.965402 37.647321,28.071429 37.357143,28.071429 C37.066964,28.071429 36.815848,27.965402 36.603795,27.753348 C36.391741,27.541295 36.285714,27.290179 36.285714,27 L36.285714,22.714286 C36.285714,21.53125 35.867188,20.521205 35.030134,19.684152 C34.19308,18.847098 33.183036,18.428571 32,18.428571 C30.816964,18.428571 29.80692,18.847098 28.969866,19.684152 C28.132812,20.521205 27.714286,21.53125 27.714286,22.714286 L27.714286,27 C27.714286,27.290179 27.608259,27.541295 27.396205,27.753348 C27.184152,27.965402 26.933036,28.071429 26.642857,28.071429 C26.352679,28.071429 26.101562,27.965402 25.889509,27.753348 C25.677455,27.541295 25.571429,27.290179 25.571429,27 L25.571429,22.714286 C25.571429,20.939732 26.199219,19.424665 27.454799,18.169085 C28.710379,16.913504 30.225446,16.285714 32,16.285714 C33.774554,16.285714 35.289621,16.913504 36.545201,18.169085 C37.800781,19.424665 38.428571,20.939732 38.428571,22.714286 Z" id="Shape" fill="url(#linearGradient-2)" fill-rule="nonzero"></path>
                </g>
            </g>
        </g>
    </g>
</svg>