<?xml version="1.0" encoding="UTF-8"?>
<svg width="64px" height="64px" viewBox="0 0 64 64" version="1.1" xmlns="http://www.w3.org/2000/svg" xmlns:xlink="http://www.w3.org/1999/xlink">
    <!-- Generator: Sketch 47.1 (45422) - http://www.bohemiancoding.com/sketch -->
    <title>InternetPayments</title>
    <desc>Created with Sketch.</desc>
    <defs>
        <linearGradient x1="0%" y1="0%" x2="107.07261%" y2="100%" id="linearGradient-1">
            <stop stop-color="#FFA000" offset="0%"></stop>
            <stop stop-color="#FFDE08" offset="100%"></stop>
        </linearGradient>
    </defs>
    <g id="_sources" stroke="none" stroke-width="1" fill="none" fill-rule="evenodd">
        <g id="InternetPayments">
            <g id="icons/internet-payments">
                <circle id="Oval-2-Copy-3" fill="url(#linearGradient-1)" fill-rule="evenodd" cx="32" cy="32" r="32"></circle>
                <path d="M47.9152174,25.9425926 L43.3793478,40.2962963 C43.0402174,41.3185185 42.15,42 41.0902174,42 L23.5826087,42 C22.5652174,42 21.5902174,41.3611111 21.251087,40.4240741 L14.5532609,22.4074074 L10.6956522,22.4074074 C9.76304348,22.4074074 9,21.6407407 9,20.7037037 C9,19.7666667 9.76304348,19 10.6956522,19 L15.7402174,19 C16.4608696,19 17.0967391,19.4685185 17.351087,20.15 L24.2608696,38.5925926 L40.3695652,38.5925926 L43.9728261,27.0925926 L24.0065217,27.0925926 C23.073913,27.0925926 22.3108696,26.3259259 22.3108696,25.3888889 C22.3108696,24.4518519 23.073913,23.6851852 24.0065217,23.6851852 L46.3043478,23.6851852 C46.8554348,23.6851852 47.3641304,23.9833333 47.6608696,24.4092593 C48,24.8351852 48.0847826,25.4314815 47.9152174,25.9425926 Z M25,44 C24.2153846,44 23.4307692,44.3230769 22.8769231,44.8769231 C22.3230769,45.4307692 22,46.2153846 22,47 C22,47.7846154 22.3230769,48.5692308 22.8769231,49.1230769 C23.4307692,49.6769231 24.2153846,50 25,50 C25.7846154,50 26.5692308,49.6769231 27.1230769,49.1230769 C27.6769231,48.5692308 28,47.7846154 28,47 C28,46.2153846 27.6769231,45.4307692 27.1230769,44.8769231 C26.5692308,44.3230769 25.7846154,44 25,44 Z M40,44 C39.2153846,44 38.4307692,44.3230769 37.8769231,44.8769231 C37.3230769,45.4307692 37,46.2153846 37,47 C37,47.7846154 37.3230769,48.5692308 37.8769231,49.1230769 C38.4307692,49.6769231 39.2153846,50 40,50 C40.7846154,50 41.5692308,49.6769231 42.1230769,49.1230769 C42.6769231,48.5692308 43,47.7846154 43,47 C43,46.2153846 42.6769231,45.4307692 42.1230769,44.8769231 C41.5692308,44.3230769 40.7846154,44 40,44 Z" id="XMLID_1732_" fill="#8C48E0" fill-rule="nonzero"></path>
            </g>
        </g>
    </g>
</svg>