<svg xmlns="http://www.w3.org/2000/svg" xmlns:xlink="http://www.w3.org/1999/xlink" viewBox="0 0 2719 1080"><defs><linearGradient id="b" x1="1473.48" y1="-117.34" x2="1306.12" y2="856.41" gradientUnits="userSpaceOnUse"><stop offset="0" stop-color="#f8f5ff"/><stop offset="1" stop-color="#eff8ff"/></linearGradient><linearGradient id="a" x1="1937.54" y1="863.67" x2="2747.46" y2="659.27" gradientUnits="userSpaceOnUse"><stop offset="0" stop-color="#3fceff"/><stop offset="1" stop-color="#a95eff"/></linearGradient><linearGradient id="c" x1="2408.38" y1="21.28" x2="2152.38" y2="825.28" gradientUnits="userSpaceOnUse"><stop offset="0" stop-color="#a98dff"/><stop offset="1" stop-color="#2fcdff"/></linearGradient><linearGradient id="d" x1="508.47" y1="277.41" x2="94.43" y2="208.41" xlink:href="#a"/></defs><title>03-solutions-header-bg</title><g style="isolation:isolate"><path fill="url(#b)" d="M0 0h2721v1080H0z"/><path d="M1028 1080s225.25-213.1 394-191c252 33 293-85 632-388s665-92 665-92v671z" fill="url(#a)"/><path d="M1924 0s590.79 218.74 247 423c-409 243-200.49 509.8 9 504 289-8 196-316 322-367 147.22-59.59 219 22 219 22V0z" opacity=".67" fill="url(#c)" style="mix-blend-mode:multiply"/><circle cx="1348" cy="531" r="10" fill="#ffe0a9"/><circle cx="964" cy="196" r="10" fill="#ffe0a9"/><circle cx="194" cy="805" r="10" fill="#ffe0a9"/><circle cx="2141" cy="206" r="10" fill="#ffe0a9"/><circle cx="502" cy="163" r="10" fill="#ffe0a9"/><circle cx="934" cy="845" r="20" fill="#f4bdff"/><circle cx="432" cy="605" r="20" fill="#f4bdff"/><circle cx="1904" cy="121" r="20" fill="#f4bdff"/><circle cx="141.5" cy="975.5" r="42.5" fill="#ceddf7"/><circle cx="1742.5" cy="582.5" r="22.5" fill="#ceddf7"/><circle cx="2576.5" cy="787.5" r="22.5" fill="#fff" opacity=".2"/><circle cx="2670" cy="217" r="11" fill="#fff" opacity=".2"/><circle cx="2350" cy="709" r="26" fill="#fff" opacity=".2"/><circle cx="1930" cy="186" r="26" fill="#fff" opacity=".2"/><circle cx="1647.5" cy="1005.5" r="22.5" fill="#fff" opacity=".6"/><circle cx="2018" cy="194" r="50" fill="#fff" opacity=".2"/><circle cx="2511.5" cy="163.5" r="42.5" fill="#ceddf7"/><circle cx="1358.5" cy="-29.5" r="225.5" fill="none" stroke="#ceddf7" stroke-miterlimit="10" stroke-width="20" opacity=".14"/><circle cx="974.5" cy="1127.5" r="225.5" fill="none" stroke="#ceddf7" stroke-miterlimit="10" stroke-width="20" opacity=".14"/><circle cx="-54.5" cy="1017.5" r="348.5" fill="none" stroke="#ceddf7" stroke-miterlimit="10" stroke-width="20" opacity=".14"/><circle cx="768" cy="369" r="29" fill="#abfbff"/><path d="M0 541s94-365 280-387 268.83 184.47 488 90C1000 144 934 0 934 0H0z" fill="url(#d)"/><circle cx="446" cy="115" r="12" fill="#fff" opacity=".2"/></g></svg>