<svg xmlns="http://www.w3.org/2000/svg" xmlns:xlink="http://www.w3.org/1999/xlink" viewBox="0 0 2719 1080"><defs><style>.cls-1{isolation:isolate;}.cls-2{fill:url(#linear-gradient);}.cls-3{fill:#f3e7e3;}.cls-4{fill:#ffe0a9;}.cls-5{fill:#c5dde6;}.cls-5,.cls-7{opacity:0.2;}.cls-10,.cls-11,.cls-12,.cls-5{mix-blend-mode:multiply;}.cls-6{fill:#ceddf7;}.cls-7,.cls-8{fill:#fff;}.cls-8{opacity:0.6;}.cls-9{fill:none;stroke:#ceddf7;stroke-miterlimit:10;stroke-width:20px;opacity:0.14;}.cls-10{fill:url(#linear-gradient-2);}.cls-11{fill:url(#linear-gradient-3);}.cls-12{fill:url(#linear-gradient-4);}</style><linearGradient id="linear-gradient" x1="1472.46" y1="-117.2" x2="1305.13" y2="856.34" gradientUnits="userSpaceOnUse"><stop offset="0" stop-color="#f8f5ff"/><stop offset="1" stop-color="#eff8ff"/></linearGradient><linearGradient id="linear-gradient-2" x1="2092.09" y1="695.5" x2="2261.57" y2="106.37" gradientUnits="userSpaceOnUse"><stop offset="0" stop-color="#a9c6f8"/><stop offset="1" stop-color="#ffb5d4"/></linearGradient><linearGradient id="linear-gradient-3" x1="2663.49" y1="512.08" x2="1943.89" y2="150.13" gradientUnits="userSpaceOnUse"><stop offset="0" stop-color="#a7c3eb"/><stop offset="1" stop-color="#ffe0c1"/></linearGradient><linearGradient id="linear-gradient-4" x1="187.73" y1="98" x2="70.71" y2="778.85" xlink:href="#linear-gradient-2"/></defs><title>02-products-header-bg</title><g class="cls-1"><g id="Layer_1" data-name="Layer 1"><rect class="cls-2" width="2719" height="1080"/><circle class="cls-3" cx="1348" cy="531" r="10"/><circle class="cls-3" cx="964" cy="196" r="10"/><circle class="cls-3" cx="194" cy="805" r="10"/><circle class="cls-4" cx="277" cy="153" r="10"/><circle class="cls-5" cx="1142" cy="805" r="20"/><circle class="cls-5" cx="734" cy="785" r="20"/><circle class="cls-6" cx="141.5" cy="975.5" r="42.5"/><circle class="cls-6" cx="1647.5" cy="627.5" r="22.5"/><circle class="cls-7" cx="2576.5" cy="787.5" r="22.5"/><circle class="cls-7" cx="2670" cy="217" r="11"/><circle class="cls-7" cx="2236" cy="443" r="26"/><circle class="cls-8" cx="1647.5" cy="1005.5" r="22.5"/><circle class="cls-7" cx="2018" cy="194" r="50"/><circle class="cls-6" cx="1440.5" cy="143.5" r="42.5"/><circle class="cls-9" cx="542.5" cy="1150.5" r="225.5"/><circle class="cls-5" cx="571" cy="420" r="29"/><path class="cls-10" d="M2068,0s334,188,266,521-347.79,529.83-664,414.57C1311.77,805,1244,1080,1244,1080H2719V0Z"/><path class="cls-11" d="M2719,1080s37-456-201-559-475.42,160.5-701.91-27c-148.63-123-21-494,244.49-494H2719Z"/><path class="cls-12" d="M0,1080S0,615.36,204,487.36C377.1,378.75,398,233.36,317,123,241.8,20.54,0,0,0,0Z"/><circle class="cls-7" cx="2236" cy="391" r="50"/><circle class="cls-7" cx="1948" cy="186" r="20"/><circle class="cls-7" cx="2650" cy="46" r="20"/><circle class="cls-7" cx="1224" cy="983" r="20"/><circle class="cls-7" cx="2494" cy="670" r="20"/></g></g></svg>