<svg id="Layer_1" data-name="Layer 1" xmlns="http://www.w3.org/2000/svg" xmlns:xlink="http://www.w3.org/1999/xlink" viewBox="0 0 2719 1080"><defs><style>.cls-1{fill:url(#linear-gradient);}.cls-2{fill:url(#linear-gradient-2);}.cls-3,.cls-4{opacity:0.4;}.cls-3{fill:url(#linear-gradient-3);}.cls-4{fill:url(#linear-gradient-4);}.cls-5{fill:url(#linear-gradient-5);}.cls-6{fill:#fff;}.cls-6,.cls-8{opacity:0.2;}.cls-7{fill:#ceddf7;}.cls-8{fill:#5bc5fe;}</style><linearGradient id="linear-gradient" x1="1472.46" y1="-117.2" x2="1305.13" y2="856.34" gradientUnits="userSpaceOnUse"><stop offset="0" stop-color="#f8f5ff"/><stop offset="1" stop-color="#eff8ff"/></linearGradient><linearGradient id="linear-gradient-2" x1="1183.61" y1="540" x2="2719" y2="540" gradientUnits="userSpaceOnUse"><stop offset="0" stop-color="#3983c0"/><stop offset="1" stop-color="#89ebfe"/></linearGradient><linearGradient id="linear-gradient-3" x1="1657.48" xlink:href="#linear-gradient-2"/><linearGradient id="linear-gradient-4" x1="0" x2="1140.04" xlink:href="#linear-gradient-2"/><linearGradient id="linear-gradient-5" x1="-0.27" y1="382.5" x2="729.72" y2="382.5" xlink:href="#linear-gradient-2"/></defs><title>06-faq-bg</title><rect class="cls-1" width="2719" height="1080"/><path class="cls-2" d="M1936.55,0s284.71,280.47,155.33,521.11S1753.69,770,1624.14,693.63s-379.55-30-429.55,144.54S1278.69,1080,1326.42,1080H2719V0Z"/><path class="cls-3" d="M2719,0s-149.9,250.72-422.81,178.59-585.68-31.47-631.14,207S1785.51,721.3,1981,867s138.34,213,138.34,213H2719Z"/><path class="cls-4" d="M0,0S84.86,998.21,581.28,934.27C992,881.36,1140,1079.62,1140,1079.62L0,1080Z"/><path class="cls-5" d="M0,765S-17.47,432.14,230.53,382.5s378-83.33,462-190S692,0,692,0H0Z"/><circle class="cls-6" cx="2071.41" cy="46" r="6.63"/><circle class="cls-6" cx="2375.41" cy="46" r="20"/><circle class="cls-6" cx="216.06" cy="280.87" r="20"/><circle class="cls-6" cx="92.26" cy="709.53" r="20"/><circle class="cls-6" cx="51.02" cy="1034.19" r="108.89"/><circle class="cls-6" cx="527.04" cy="48.36" r="14.14"/><circle class="cls-6" cx="51.02" cy="40.19" r="8.17"/><circle class="cls-6" cx="847.13" cy="1022.36" r="8.17"/><circle class="cls-6" cx="2577.04" cy="307.36" r="9"/><circle class="cls-6" cx="2550.04" cy="914.36" r="20"/><circle class="cls-6" cx="2673.04" cy="1036.36" r="10.14"/><circle class="cls-6" cx="2331.04" cy="1029.36" r="7"/><circle class="cls-7" cx="2222.86" cy="260.87" r="28.34"/><circle class="cls-7" cx="1682.55" cy="838.17" r="44.82"/><circle class="cls-8" cx="2186.28" cy="801.58" r="36.58"/><circle class="cls-8" cx="1876.62" cy="494.56" r="16.81"/><circle class="cls-7" cx="2222.86" cy="638" r="6.68"/><circle class="cls-8" cx="2445.92" cy="731" r="16.81"/><circle class="cls-8" cx="875.54" cy="130.23" r="36.58"/><circle class="cls-8" cx="1840.04" cy="166.81" r="36.58"/><circle class="cls-8" cx="491.86" cy="804.35" r="11.01"/><circle class="cls-8" cx="1359.5" cy="644.68" r="11.01"/><circle class="cls-8" cx="1118.15" cy="371.49" r="11.01"/><circle class="cls-8" cx="1233.5" cy="154.94" r="11.88"/><circle class="cls-7" cx="336.38" cy="494.56" r="28.34"/><circle class="cls-8" cx="955.14" cy="793.34" r="14.24"/></svg>