<svg xmlns="http://www.w3.org/2000/svg" xmlns:xlink="http://www.w3.org/1999/xlink" viewBox="0 0 2719 1080"><defs><style>.cls-1{isolation:isolate;}.cls-2{fill:url(#linear-gradient);}.cls-3{fill:url(#linear-gradient-2);}.cls-4,.cls-5{mix-blend-mode:multiply;}.cls-4{fill:url(#linear-gradient-3);}.cls-5{fill:url(#linear-gradient-4);}.cls-6{fill:url(#linear-gradient-5);}.cls-7{fill:#ffe0a9;}.cls-10,.cls-8{fill:#f4bdff;}.cls-12,.cls-8{opacity:0.35;}.cls-9{fill:#cad5e6;}.cls-11,.cls-12{fill:#ceddf7;}.cls-13,.cls-14,.cls-15{fill:#fff;}.cls-13{opacity:0.2;}.cls-14{opacity:0.6;}.cls-15{opacity:0.08;}.cls-16{fill:none;stroke:#ceddf7;stroke-miterlimit:10;stroke-width:20px;opacity:0.14;}</style><linearGradient id="linear-gradient" x1="1473.48" y1="-117.34" x2="1306.12" y2="856.41" gradientUnits="userSpaceOnUse"><stop offset="0" stop-color="#f8f5ff"/><stop offset="1" stop-color="#eff8ff"/></linearGradient><linearGradient id="linear-gradient-2" x1="2314.74" y1="627.66" x2="2724.83" y2="219.29" gradientUnits="userSpaceOnUse"><stop offset="0" stop-color="#ff6a15"/><stop offset="1" stop-color="#ffd53d"/></linearGradient><linearGradient id="linear-gradient-3" x1="1442.08" y1="1247.86" x2="2568.19" y2="758.69" gradientUnits="userSpaceOnUse"><stop offset="0" stop-color="#ffa4db"/><stop offset="1" stop-color="#ffff36"/></linearGradient><linearGradient id="linear-gradient-4" x1="1855.71" y1="393.8" x2="2696.07" y2="28.76" xlink:href="#linear-gradient-3"/><linearGradient id="linear-gradient-5" x1="4460.26" y1="-2326.97" x2="5344.26" y2="-2710.97" gradientTransform="translate(2671.73 5542.95) rotate(-90)" xlink:href="#linear-gradient-2"/></defs><title>04-about-us-header-bg</title><g class="cls-1"><g id="Layer_1" data-name="Layer 1"><rect class="cls-2" width="2721" height="1080"/><path class="cls-3" d="M1767.82,1080S2082.27,984.24,2172,798.11c110.34-228.89-37.78-413.18-127.79-527.61s-15-268.5,75-268.5h599.11L2721,1080Z"/><path class="cls-4" d="M1264,1080s146-305,344-245,334,200,543,78,307-142,403-26,166.82,118.5,166.82,118.5l.18,74.5Z"/><path class="cls-5" d="M2718.33,2l.67,519s-92.24-241.08-250-250.5S2233.23,348.87,2098.22,338s-249-113-297-197-195-141-195-141Z"/><path class="cls-6" d="M541,1080S176,986,154,800,464,567.83,369.5,348.66C269.5,116.66,0,146,0,146v934Z"/><circle class="cls-7" cx="2069.37" cy="521" r="10"/><circle class="cls-7" cx="1133" cy="206" r="10"/><circle class="cls-7" cx="194" cy="805" r="10"/><circle class="cls-7" cx="2141" cy="206" r="10"/><circle class="cls-7" cx="502" cy="163" r="10"/><circle class="cls-8" cx="1200" cy="930" r="20"/><circle class="cls-9" cx="432" cy="605" r="20"/><circle class="cls-10" cx="1904" cy="121" r="20"/><circle class="cls-11" cx="412" cy="887.5" r="42.5"/><circle class="cls-12" cx="1831.84" cy="688.64" r="22.5"/><circle class="cls-13" cx="2576.5" cy="787.5" r="22.5"/><circle class="cls-13" cx="2670" cy="217" r="11"/><circle class="cls-13" cx="2324" cy="983" r="26"/><circle class="cls-13" cx="1930" cy="186" r="26"/><circle class="cls-14" cx="1561.5" cy="910" r="22.5"/><circle class="cls-13" cx="2230.34" cy="101" r="50"/><circle class="cls-15" cx="2511.5" cy="163.5" r="42.5"/><circle class="cls-16" cx="1358.5" cy="-29.5" r="225.5"/><circle class="cls-16" cx="974.5" cy="1127.5" r="225.5"/><circle class="cls-16" cx="-102.39" cy="501.5" r="348.5"/><circle class="cls-9" cx="846.36" cy="501.5" r="29"/><circle class="cls-13" cx="446" cy="115" r="12"/></g></g></svg>