<svg xmlns="http://www.w3.org/2000/svg" xmlns:xlink="http://www.w3.org/1999/xlink" viewBox="0 0 2719 1080" preserveAspectRatio="xMinYMid"><defs><linearGradient id="b" x1="1480.14" y1="-118.29" x2="1312.54" y2="856.86" gradientUnits="userSpaceOnUse"><stop offset="0" stop-color="#f8f5ff"/><stop offset="1" stop-color="#eff8ff"/></linearGradient><linearGradient id="a" x1="2232.61" y1="-9.36" x2="2103.9" y2="739.48" gradientUnits="userSpaceOnUse"><stop offset="0" stop-color="#ffe800"/><stop offset="1" stop-color="#ffc200"/></linearGradient><linearGradient id="c" x1="2285.65" y1="5.65" x2="2145.78" y2="819.44" gradientUnits="userSpaceOnUse"><stop offset="0" stop-color="#f60"/><stop offset="1" stop-color="#ffd472"/></linearGradient><linearGradient id="d" x1="597.61" y1="171.4" x2="479.2" y2="860.34" xlink:href="#a"/></defs><title>01-home-header-bg-new</title><path fill="url(#b)" d="M0 0h2734v1080H0z"/><path d="M1834.5-.5s-400.43 63-311.49 388.28c57 208.49 461.26 151.72 593.74 356.06 110.47 170.39-36.47 336.16-36.47 336.16H2719L2718.5-.5z" fill="url(#a)"/><path d="M2115.85 0S2335 180 2251 372s-348 168-525 342-243 366-243 366h1236V-1z" opacity=".17" fill="url(#c)"/><circle cx="1348" cy="531" r="10" fill="#ffe0a9"/><circle cx="964" cy="196" r="10" fill="#ffe0a9"/><circle cx="194" cy="805" r="10" fill="#ffe0a9"/><circle cx="277" cy="153" r="10" fill="#ffe0a9"/><circle cx="339.66" cy="650" r="10" fill="#ffe0a9"/><circle cx="1142" cy="805" r="20" fill="#ffe0a9"/><circle cx="734" cy="785" r="20" fill="#ffe0a9"/><circle cx="141.5" cy="975.5" r="42.5" fill="#ceddf7"/><circle cx="1647.5" cy="627.5" r="22.5" fill="#ceddf7"/><circle cx="1090.5" cy="459.89" r="11.39" fill="#ceddf7"/><circle cx="2576.5" cy="787.5" r="22.5" fill="#fff" opacity=".2"/><circle cx="2670" cy="217" r="11" fill="#fff" opacity=".2"/><circle cx="2435.12" cy="408" r="11" fill="#fff" opacity=".2"/><circle cx="2461.5" cy="402.5" r="5.5" fill="#fff" opacity=".2"/><circle cx="2516.55" cy="749.34" r="5.5" fill="#fff" opacity=".2"/><circle cx="2686.5" cy="930.07" r="5.5" fill="#fff" opacity=".2"/><circle cx="2240.89" cy="476" r="16.11" fill="#fff" opacity=".2"/><circle cx="1647.5" cy="1005.5" r="22.5" fill="#fff" opacity=".6"/><circle cx="2006.58" cy="735.08" r="8.76" fill="#fff" opacity=".6"/><circle cx="2314.58" cy="971" r="22.5" fill="#fff" opacity=".6"/><circle cx="2018" cy="194" r="50" fill="#fff" opacity=".2"/><circle cx="1440.5" cy="143.5" r="42.5" fill="#ceddf7"/><circle cx="954.5" cy="116.5" r="225.5" fill="none" stroke="#ceddf7" stroke-miterlimit="10" stroke-width="20" opacity=".14"/><circle cx="542.5" cy="1150.5" r="225.5" fill="none" stroke="#ceddf7" stroke-miterlimit="10" stroke-width="20" opacity=".14"/><circle cx="-154.5" cy="448.5" r="348.5" fill="none" stroke="#ceddf7" stroke-miterlimit="10" stroke-width="20" opacity=".14"/><circle cx="571" cy="420" r="29" fill="#ffe0a9"/><circle cx="2418.43" cy="202.52" r="33.39" fill="#fff"/><circle cx="2504.24" cy="189.5" r="46.41" fill="#fff"/><circle cx="2377.69" cy="219.22" r="16.69" fill="#fff"/><circle cx="2545.31" cy="219.22" r="16.69" fill="#fff"/><circle cx="2451.82" cy="219.22" r="16.69" fill="#fff"/><circle cx="2467.18" cy="219.22" r="16.69" fill="#fff"/><circle cx="2447.14" cy="174.48" r="22.7" fill="#fff"/><circle cx="2467.84" cy="194.51" r="24.71" fill="#fff"/><path fill="#fff" d="M2377.69 219.22h167.61v16.69h-167.61z"/><circle cx="2187.71" cy="325.78" r="16.11" fill="#fff"/><circle cx="2218.12" cy="319.5" r="22.4" fill="#fff"/><circle cx="2168.06" cy="333.84" r="8.06" fill="#fff"/><circle cx="2248.94" cy="333.84" r="8.06" fill="#fff"/><circle cx="2203.83" cy="333.84" r="8.06" fill="#fff"/><circle cx="2211.24" cy="333.84" r="8.06" fill="#fff"/><circle cx="2239.26" cy="323.56" r="12.26" fill="#fff"/><circle cx="2196.56" cy="311.92" r="7.08" fill="#fff"/><circle cx="2266.56" cy="337.92" r="3.92" fill="#fff"/><circle cx="2296" cy="337.92" r="3.92" fill="#fff"/><circle cx="2281.56" cy="337.92" r="3.92" fill="#fff"/><circle cx="2287.56" cy="332.92" r="8.92" fill="#fff"/><circle cx="2273.56" cy="334.92" r="6.92" fill="#fff"/><path fill="#fff" d="M2168.06 333.84h80.89v8.06h-80.89zm98.39 2.16H2296v5.83h-29.55z"/><circle cx="3038.24" cy="448.5" r="348.5" fill="none" stroke="#ceddf7" stroke-miterlimit="10" stroke-width="20" opacity=".14"/><path d="M0 0s63.76 589.3 248 805c164 192 283.87 225.75 506 160 250-74 314 118 314 118L0 1095z" fill="url(#d)"/><circle cx="204" cy="1005.5" r="5.5" fill="#fff" opacity=".2"/><circle cx="154.25" cy="812.25" r="12.75" fill="#fff" opacity=".2"/><circle cx="53.68" cy="627.59" r="5.5" fill="#fff" opacity=".2"/><circle cx="880.63" cy="1018" r="18" fill="#fff" opacity=".2"/></svg>