<?xml version="1.0" encoding="UTF-8"?>
<svg width="120px" height="120px" viewBox="0 0 120 120" version="1.1" xmlns="http://www.w3.org/2000/svg" xmlns:xlink="http://www.w3.org/1999/xlink">
    <!-- Generator: Sketch 47.1 (45422) - http://www.bohemiancoding.com/sketch -->
    <title>icons/01-03</title>
    <desc>Created with Sketch.</desc>
    <defs>
        <linearGradient x1="0%" y1="0%" x2="107.07261%" y2="100%" id="linearGradient-1">
            <stop stop-color="#FFA000" offset="0%"></stop>
            <stop stop-color="#FFDE08" offset="100%"></stop>
        </linearGradient>
        <linearGradient x1="0%" y1="0%" x2="101.999998%" y2="100.999999%" id="linearGradient-2">
            <stop stop-color="#0090FF" offset="0%"></stop>
            <stop stop-color="#0915A3" offset="100%"></stop>
        </linearGradient>
    </defs>
    <g id="_sources" stroke="none" stroke-width="1" fill="none" fill-rule="evenodd">
        <g id="icons/01-03">
            <g id="03-icon">
                <g>
                    <g id="bg-circle-120" fill="url(#linearGradient-1)">
                        <g>
                            <circle id="Oval-2" opacity="0.6" cx="60" cy="60" r="60"></circle>
                            <circle id="Oval-2-Copy-2" opacity="0.4" cx="60" cy="60" r="52"></circle>
                            <circle id="Oval-2-Copy" cx="60" cy="60" r="42"></circle>
                        </g>
                    </g>
                    <path d="M72,47.5 L72,49 L71,48.25 L71,47.5 L70,47.5 L70,48.25 L69,48.25 L69,46.75 L70,46.75 L69,46 L70,46 L72,47.5 Z M63.75,43 L63,43 L63.75,44 L64.5,45 L66,44 L65.25,43 L63.75,43 Z M54,51 L56,52 L55,50 L54,50 L53,51 L54,51 Z M46,61 L45,61 L47,62 L48,62 L46,61 Z M47,63 L49,63 L49,62 L48,62 L47,63 Z M45,64 L46,63 L45,63 L45,64 Z M84,60 C84,73.2 73.2,84 60,84 C46.8,84 36,73.2 36,60 C36,46.8 46.8,36 60,36 C73.2,36 84,46.8 84,60 Z M76,45.6 L76,47.2 L75,48 L76,48 L77,47.2 L77,46.4 L76,45.6 L75,44 L74,44 L75,45.6 L76,45.6 Z M80,53 L80.5882353,53 L81,53 C80.9411765,52.7 80.8823529,52.3 80.8235294,52 L80.5882353,52 L80,51 L80,53 Z M54,82 L54,82 L52.3157895,79.4117647 L50.6315789,75.0980392 L48.9473684,74.2352941 L46.4210526,71.6470588 L45.5789474,69.9215686 L46.4210526,68.1960784 L46.4210526,66.4705882 L45.5789474,67.3333333 L43.8947368,66.4705882 L43.0526316,64.745098 L42.2105263,64.745098 L41.3684211,63.8823529 L40.5263158,63.8823529 L38.8421053,62.1568627 L38.8421053,61.2941176 L38,60 C38,60.172549 38,60.2588235 38,60.4313725 C38,70.6980392 44.8210526,79.4117647 54,82 Z M59.6458333,82 C64.0875,82 68.1875,80.7258687 71.6041667,78.5173745 L71.6041667,77.7528958 L73.3125,75.2046332 L73.3125,74.3552124 L74.1666667,72.6563707 L75.0208333,72.6563707 L75.0208333,70.1081081 L74.1666667,69.2586873 L75.0208333,67.5598456 L74.1666667,66.7104247 L72.4583333,67.5598456 L70.75,67.5598456 L69.0416667,66.7104247 L68.1875,65.011583 L67.3333333,64.1621622 L67.3333333,63.3127413 L68.1875,62.4633205 L68.1875,60.7644788 L69.0416667,58.2162162 L69.8958333,58.2162162 L70.75,56.5173745 L71.6041667,55.6679537 L73.3125,55.6679537 L74.1666667,54.8185328 L75.875,54.8185328 L76.7291667,56.5173745 L77.5833333,57.3667954 L78.4375,57.3667954 L79.2916667,56.5173745 L80.1458333,57.3667954 L81,57.3667954 L80.1458333,55.6679537 L79.2916667,55.6679537 L78.4375,53.969112 L77.5833333,55.6679537 L76.7291667,54.8185328 L77.5833333,53.969112 L75.0208333,52.2702703 C75.0208333,52.2702703 75.0208333,52.2702703 74.1666667,52.2702703 C73.3125,52.2702703 73.3125,52.2702703 73.3125,52.2702703 L74.1666667,53.1196911 L73.3125,53.1196911 L73.3125,54.8185328 L72.4583333,54.8185328 L71.6041667,55.6679537 L71.6041667,54.8185328 L69.8958333,54.8185328 L69.8958333,53.1196911 L70.75,52.2702703 L72.4583333,52.2702703 L72.4583333,51.4208494 L71.6041667,50.5714286 L70.75,49.7220077 L71.6041667,49.7220077 L72.4583333,48.023166 L73.3125,48.023166 L73.3125,46.3243243 L72.4583333,46.3243243 L71.6041667,44.6254826 L72.4583333,43.7760618 L71.6041667,42.0772201 L71.8604167,41.4826255 C69.2125,39.6988417 66.1375,38.5096525 62.80625,38 L62.2083333,38.6795367 L63.9166667,39.5289575 L63.0625,40.3783784 L63.0625,42.0772201 L61.3541667,42.9266409 L59.6458333,42.9266409 L58.7916667,44.6254826 L57.9375,45.4749035 L56.2291667,44.6254826 L55.375,42.0772201 L56.2291667,40.3783784 L55.375,39.5289575 L53.6666667,39.5289575 L53.6666667,38.6795367 L53.6666667,38.6795367 C53.2395833,38.7644788 52.8125,38.9343629 52.4708333,39.019305 L51.9583333,39.5289575 L51.1041667,39.5289575 C49.99375,40.03861 48.8833333,40.5482625 47.8583333,41.2277992 L48.5416667,41.2277992 L49.3958333,40.3783784 L51.9583333,40.3783784 L52.8125,41.2277992 L51.9583333,42.0772201 L52.8125,42.0772201 L53.6666667,42.9266409 L52.8125,43.7760618 L51.9583333,44.6254826 L51.1041667,44.6254826 L50.25,43.7760618 L49.3958333,43.7760618 L51.1041667,42.9266409 L50.25,42.0772201 L48.5416667,42.9266409 L48.5416667,43.7760618 L46.8333333,43.7760618 L44.2708333,45.4749035 L44.2708333,46.3243243 L45.125,47.1737452 L45.9791667,47.1737452 L45.9791667,48.8725869 L46.8333333,48.8725869 L46.8333333,48.023166 L48.5416667,46.3243243 L47.6875,45.4749035 L48.5416667,44.6254826 L50.25,44.6254826 L50.25,45.4749035 L51.1041667,46.3243243 L51.9583333,45.4749035 L52.8125,47.1737452 L54.5208333,48.023166 L53.6666667,49.7220077 L53.6666667,48.8725869 L52.8125,49.7220077 L51.1041667,49.7220077 L50.25,50.5714286 L51.1041667,50.5714286 L51.9583333,51.4208494 L49.3958333,52.2702703 L48.5416667,52.2702703 L48.5416667,53.1196911 L46.8333333,53.969112 L45.9791667,55.6679537 L44.2708333,57.3667954 L45.125,59.0656371 L44.2708333,59.9150579 L43.4166667,59.0656371 L42.5625,58.2162162 L40.8541667,58.2162162 L40,59.9150579 L40,61.6138996 L40.8541667,62.4633205 L41.7083333,61.6138996 L43.4166667,60.7644788 L42.5625,61.6138996 L42.5625,63.3127413 L43.4166667,63.3127413 L43.4166667,64.1621622 L44.2708333,65.8610039 L45.125,65.8610039 L45.9791667,65.011583 L47.6875,64.1621622 L48.5416667,65.011583 L51.1041667,65.011583 L52.8125,66.7104247 L54.5208333,66.7104247 L56.2291667,68.4092664 L58.7916667,69.2586873 L60.5,70.1081081 L61.3541667,71.8069498 L59.6458333,72.6563707 L59.6458333,75.2046332 L57.9375,76.0540541 L57.0833333,76.0540541 L57.0833333,77.7528958 L55.375,79.4517375 L55.375,80.3011583 L54.5208333,81.1505792 L54.8625,81.4903475 C56.4,81.8301158 58.0229167,82 59.6458333,82 Z" id="Shape" fill="url(#linearGradient-2)" fill-rule="nonzero"></path>
                    <circle id="Oval" stroke="url(#linearGradient-2)" stroke-width="4" cx="60" cy="60" r="23"></circle>
                </g>
            </g>
        </g>
    </g>
</svg>