<?xml version="1.0" encoding="UTF-8"?>
<svg width="120px" height="120px" viewBox="0 0 120 120" version="1.1" xmlns="http://www.w3.org/2000/svg" xmlns:xlink="http://www.w3.org/1999/xlink">
    <!-- Generator: Sketch 47.1 (45422) - http://www.bohemiancoding.com/sketch -->
    <title>icons/01-01</title>
    <desc>Created with Sketch.</desc>
    <defs>
        <linearGradient x1="0%" y1="0%" x2="107.07261%" y2="100%" id="linearGradient-1">
            <stop stop-color="#FFA000" offset="0%"></stop>
            <stop stop-color="#FFDE08" offset="100%"></stop>
        </linearGradient>
    </defs>
    <g id="_sources" stroke="none" stroke-width="1" fill="none" fill-rule="evenodd">
        <g id="icons/01-01">
            <g id="01-icon">
                <g>
                    <g id="bg-circle-120" fill="url(#linearGradient-1)">
                        <g>
                            <circle id="Oval-2" opacity="0.6" cx="60" cy="60" r="60"></circle>
                            <circle id="Oval-2-Copy-2" opacity="0.4" cx="60" cy="60" r="52"></circle>
                            <circle id="Oval-2-Copy" cx="60" cy="60" r="42"></circle>
                        </g>
                    </g>
                    <path d="M81.1291845,61.558258 L66.5770384,76.1296458 C65.9443373,76.8874948 65.1007347,77.059733 64.0462305,76.6463621 C62.9917281,76.1640931 62.464476,75.4406913 62.464476,74.476155 L62.464476,68.1722211 C52.130343,67.9655338 45.4518232,70.44577 42.4289147,75.6129295 C41.9368122,76.4396748 41.2689597,76.8530475 40.4253571,76.8530475 C40.1441562,76.8530475 39.9332565,76.8186003 39.792656,76.7497039 C38.5975514,76.4052276 38,75.6473767 38,74.476155 C38,73.7183042 38.0702993,72.7709924 38.2109016,71.634218 C38.3515002,70.4974418 38.9842031,68.5511465 40.1090066,65.7953285 C41.2338101,63.0395106 42.8155645,60.6626181 44.8542718,58.6646492 C49.0019837,54.3931314 54.8720524,52.0506862 62.464476,51.6373135 L62.464476,45.3333795 C62.464476,44.2999487 62.9565785,43.6109942 63.9407797,43.2665161 C64.9952839,42.7842488 65.8740362,42.956487 66.5770384,43.7832324 L81.2346353,58.2512765 C82.2891377,59.3536037 82.253988,60.4559309 81.1291845,61.558258 Z M76.0675688,59.9047673 L67.2097412,51.0172553 L67.2097412,53.9108624 C67.2097412,54.5309223 66.9812658,55.0648614 66.524313,55.5126831 C66.067362,55.9605031 65.522536,56.1844131 64.8898331,56.1844131 C57.5786104,56.1844131 52.024894,58.0790383 48.2286822,61.8682871 C46.6820774,63.383987 45.4166735,65.2097159 44.4324704,67.3454757 C48.8613833,64.796345 54.4854008,63.5217779 61.3045229,63.5217779 C61.7263242,63.5217779 62.1305498,63.5217779 62.5172014,63.5217779 C62.9038531,63.5217779 63.2553533,63.5390024 63.5717038,63.5734497 C63.8880561,63.6078969 64.1516813,63.642346 64.3625828,63.6767933 C64.5734826,63.7112406 64.7492327,63.7284651 64.8898331,63.7284651 L65.1007347,63.7284651 C66.5067391,63.866256 67.2097412,64.624105 67.2097412,66.002014 L67.2097412,68.7922792 L76.0675688,59.9047673 Z" id="Shape" fill="#264AD7" fill-rule="nonzero"></path>
                </g>
            </g>
        </g>
    </g>
</svg>